<?xml version="1.0" encoding="UTF-8" standalone="no"?>
<svg
   xmlns:dc="http://purl.org/dc/elements/1.1/"
   xmlns:cc="http://creativecommons.org/ns#"
   xmlns:rdf="http://www.w3.org/1999/02/22-rdf-syntax-ns#"
   xmlns:svg="http://www.w3.org/2000/svg"
   xmlns="http://www.w3.org/2000/svg"
   xmlns:sodipodi="http://sodipodi.sourceforge.net/DTD/sodipodi-0.dtd"
   xmlns:inkscape="http://www.inkscape.org/namespaces/inkscape"
   width="24px"
   height="24px"
   viewBox="0 0 24 24"
   version="1.1"
   id="svg9"
   sodipodi:docname="payment.svg"
   inkscape:version="0.92.4 (5da689c313, 2019-01-14)">
  <metadata
     id="metadata15">
    <rdf:RDF>
      <cc:Work
         rdf:about="">
        <dc:format>image/svg+xml</dc:format>
        <dc:type
           rdf:resource="http://purl.org/dc/dcmitype/StillImage" />
        <dc:title>ic_fluent_payment_24_regular</dc:title>
      </cc:Work>
    </rdf:RDF>
  </metadata>
  <defs
     id="defs13" />
  <sodipodi:namedview
     pagecolor="#ffffff"
     bordercolor="#666666"
     borderopacity="1"
     objecttolerance="10"
     gridtolerance="10"
     guidetolerance="10"
     inkscape:pageopacity="0"
     inkscape:pageshadow="2"
     inkscape:window-width="1920"
     inkscape:window-height="1003"
     id="namedview11"
     showgrid="false"
     inkscape:zoom="9.8333333"
     inkscape:cx="-0.40677966"
     inkscape:cy="12"
     inkscape:window-x="-9"
     inkscape:window-y="-9"
     inkscape:window-maximized="1"
     inkscape:current-layer="svg9" />
  <!-- Uploaded to SVGRepo https://www.svgrepo.com -->
  <title
     id="title2">ic_fluent_payment_24_regular</title>
  <desc
     id="desc4">Created with Sketch.</desc>
  <g
     id="ðŸ”-Product-Icons"
     style="fill:#fb3959;fill-rule:evenodd;stroke:none;stroke-width:1;fill-opacity:1">
    <g
       id="ic_fluent_payment_24_regular"
       style="fill:#fb3959;fill-rule:nonzero;fill-opacity:1">
      <path
         d="m 19.238885,5.0207074 c 1.462532,0 2.658404,1.1417046 2.744981,2.5824777 l 0.005,0.1675223 v 8.5050856 c 0,1.462532 -1.141705,2.658404 -2.582478,2.744981 l -0.167522,0.005 H 4.7610488 c -1.4625318,0 -2.6584042,-1.141705 -2.7449811,-2.582478 l -0.00502,-0.167522 V 7.7707074 c 0,-1.4625318 1.1417046,-2.6584043 2.5824776,-2.7449812 l 0.1675223,-0.00502 z m 1.249164,5.9739996 H 3.5100489 l 10e-4,5.281086 c 0,0.647209 0.4918746,1.179534 1.1221947,1.243546 l 0.1278052,0.0065 H 19.238885 c 0.647208,0 1.179534,-0.491875 1.243546,-1.122195 l 0.0065,-0.127805 z M 18.252904,14.5 c 0.414214,0 0.75,0.335786 0.75,0.75 0,0.379696 -0.282153,0.693491 -0.648229,0.743153 L 18.252904,16 h -2.499999 c -0.414214,0 -0.75,-0.335786 -0.75,-0.75 0,-0.379696 0.282153,-0.693491 0.648229,-0.743153 L 15.752905,14.5 Z M 19.238885,6.5207074 H 4.7610488 c -0.6472086,0 -1.1795338,0.4918747 -1.2435463,1.1221948 l -0.00645,0.1278052 -10e-4,1.724 H 20.488049 l 8.36e-4,-1.724 c 0,-0.6472087 -0.491875,-1.1795339 -1.122195,-1.2435464 z"
         id="ðŸŽ¨-Color"
         inkscape:connector-curvature="0"
         style="fill:#fb3959;fill-opacity:1" />
    </g>
  </g>
</svg>
