<?xml version="1.0" encoding="UTF-8" standalone="no"?>
<svg
   xmlns:dc="http://purl.org/dc/elements/1.1/"
   xmlns:cc="http://creativecommons.org/ns#"
   xmlns:rdf="http://www.w3.org/1999/02/22-rdf-syntax-ns#"
   xmlns:svg="http://www.w3.org/2000/svg"
   xmlns="http://www.w3.org/2000/svg"
   xmlns:sodipodi="http://sodipodi.sourceforge.net/DTD/sodipodi-0.dtd"
   xmlns:inkscape="http://www.inkscape.org/namespaces/inkscape"
   width="24px"
   height="24px"
   viewBox="0 0 24 24"
   role="img"
   version="1.1"
   id="svg4"
   sodipodi:docname="aparat.svg"
   inkscape:version="0.92.4 (5da689c313, 2019-01-14)">
  <metadata
     id="metadata10">
    <rdf:RDF>
      <cc:Work
         rdf:about="">
        <dc:format>image/svg+xml</dc:format>
        <dc:type
           rdf:resource="http://purl.org/dc/dcmitype/StillImage" />
        <dc:title></dc:title>
      </cc:Work>
    </rdf:RDF>
  </metadata>
  <defs
     id="defs8" />
  <sodipodi:namedview
     pagecolor="#ffffff"
     bordercolor="#666666"
     borderopacity="1"
     objecttolerance="10"
     gridtolerance="10"
     guidetolerance="10"
     inkscape:pageopacity="0"
     inkscape:pageshadow="2"
     inkscape:window-width="1920"
     inkscape:window-height="1003"
     id="namedview6"
     showgrid="false"
     inkscape:snap-bbox="true"
     inkscape:zoom="19.666667"
     inkscape:cx="9.2332876"
     inkscape:cy="12.068314"
     inkscape:window-x="-9"
     inkscape:window-y="-9"
     inkscape:window-maximized="1"
     inkscape:current-layer="svg4" />
  <path
     style="fill:#ff0000;fill-opacity:1"
     id="path817"
     d="M 12.001,1.5940005 C 2.731,1.5910005 -1.912,12.797 4.641,19.352 a 10.403,10.403 0 0 0 17.76,-7.355 c 0,-5.7439995 -4.655,-10.4009995 -10.4,-10.4029995 z m -5.891,5.189 c 0.501,-2.598 3.893,-3.294 5.376,-1.103 1.483,2.19 -0.422,5.0819995 -3.02,4.5819995 A 2.97,2.97 0 0 1 6.11,6.7830005 Z M 10.432,15.771 c -0.504,2.597 -3.897,3.288 -5.377,1.096 -1.48,-2.192 0.427,-5.08 3.025,-4.579 a 2.97,2.97 0 0 1 2.352,3.483 z m 1.26,-2.405 c -1.152,-0.223 -1.462,-1.727 -0.491,-2.387 0.97,-0.66 2.256,0.18 2.04,1.334 a 1.32,1.32 0 0 1 -1.548,1.053 z m 6.198,3.838 c -0.501,2.598 -3.893,3.293 -5.376,1.103 -1.484,-2.191 0.421,-5.082 3.02,-4.583 a 2.97,2.97 0 0 1 2.356,3.48 z M 15.923,11.702 C 13.325,11.201 12.63,7.8060005 14.821,6.3220005 c 2.19,-1.483 5.081,0.422 4.582,3.0199995 a 2.97,2.97 0 0 1 -3.48,2.36 z m -2.333,11.562 2.264,0.61 a 3.715,3.715 0 0 0 4.543,-2.636 l 0.64,-2.402 a 11.383,11.383 0 0 1 -7.448,4.428 z m 7.643,-19.6649995 -2.363,-0.629 A 11.376,11.376 0 0 1 23.224,10.59 l 0.65,-2.4589995 a 3.715,3.715 0 0 0 -2.643,-4.531 z M 0.672,13.809 0.131,15.849 a 3.715,3.715 0 0 0 2.636,4.543 l 2.107,0.562 A 11.38,11.38 0 0 1 0.671,13.809 Z m 9.685,-13.1069995 -2.207,-0.576 a 3.715,3.715 0 0 0 -4.547,2.637 l -0.551,2.082 a 11.376,11.376 0 0 1 7.306,-4.143 z"
     inkscape:connector-curvature="0" />
  <path
     inkscape:connector-curvature="0"
     d="m 13.588,23.265 2.264,0.61 c 1.982346,0.526001 4.015914,-0.653943 4.543,-2.636 l 0.64,-2.402 c -1.801847,2.40015 -4.478672,3.991581 -7.448,4.428 z m 7.643,-19.6649995 -2.363,-0.629 c 2.412114,1.855397 3.980286,4.5998789 4.354,7.6199995 l 0.65,-2.4589995 C 24.389895,6.151428 23.20793,4.125138 21.229,3.6010005 Z M 0.6700009,13.81 l -0.541,2.04 c -0.526001,1.982345 0.653943,4.015914 2.636,4.543 l 2.107,0.562 c -2.249462,-1.768554 -3.750112,-4.319623 -4.203,-7.145 z M 10.355,0.70300052 8.1480009,0.12700053 c -1.983948,-0.52849043 -4.020417,0.65254485 -4.547,2.63699997 l -0.551,2.082 C 4.8677199,2.5836388 7.4813589,1.101527 10.356,0.70300052 Z"
     id="path824"
     style="display:inline;fill:#000000;fill-opacity:1"
     sodipodi:nodetypes="cccccccccccccccccccccccc" />
</svg>
